<?xml version="1.0" encoding="UTF-8" standalone="no"?>
<!-- Created with Inkscape (http://www.inkscape.org/) -->

<svg
   xmlns:dc="http://purl.org/dc/elements/1.1/"
   xmlns:cc="http://creativecommons.org/ns#"
   xmlns:rdf="http://www.w3.org/1999/02/22-rdf-syntax-ns#"
   xmlns:svg="http://www.w3.org/2000/svg"
   xmlns="http://www.w3.org/2000/svg"
   xmlns:sodipodi="http://sodipodi.sourceforge.net/DTD/sodipodi-0.dtd"
   xmlns:inkscape="http://www.inkscape.org/namespaces/inkscape"
   width="191.47952mm"
   height="33.030701mm"
   viewBox="0 0 191.47952 33.0307"
   version="1.1"
   id="svg8"
   inkscape:version="0.92.4 (5da689c313, 2019-01-14)"
   sodipodi:docname="title.svg">
  <defs
     id="defs2" />
  <sodipodi:namedview
     id="base"
     pagecolor="#ffffff"
     bordercolor="#666666"
     borderopacity="1.0"
     inkscape:pageopacity="0.0"
     inkscape:pageshadow="2"
     inkscape:zoom="0.7"
     inkscape:cx="262.25204"
     inkscape:cy="94.546509"
     inkscape:document-units="mm"
     inkscape:current-layer="layer1-0"
     showgrid="false"
     inkscape:window-width="1920"
     inkscape:window-height="1017"
     inkscape:window-x="-8"
     inkscape:window-y="-8"
     inkscape:window-maximized="1"
     fit-margin-top="0"
     fit-margin-left="0"
     fit-margin-right="0"
     fit-margin-bottom="0" />
  <metadata
     id="metadata5">
    <rdf:RDF>
      <cc:Work
         rdf:about="">
        <dc:format>image/svg+xml</dc:format>
        <dc:type
           rdf:resource="http://purl.org/dc/dcmitype/StillImage" />
        <dc:title></dc:title>
      </cc:Work>
    </rdf:RDF>
  </metadata>
  <g
     inkscape:label="Layer 1"
     inkscape:groupmode="layer"
     id="layer1"
     transform="translate(-0.9928,-130.90103)">
    <g
       id="g979"
       transform="translate(-175.87155,94.500108)">
      <g
         style="display:inline"
         transform="translate(0,-191.16668)"
         id="layer1-0"
         inkscape:label="Title">
        <g
           transform="translate(0,191.16668)"
           style="display:inline"
           inkscape:label="Shadow"
           id="layer2"
           inkscape:groupmode="layer" />
        <path
           inkscape:connector-curvature="0"
           id="path4993"
           d=""
           style="fill:#000000;stroke-width:1.05358028" />
        <path
           inkscape:connector-curvature="0"
           id="path5036"
           d="m 179.87503,260.49278 h -3.01068 v -12.64487 -12.64487 h 2.65228 2.65229 l 3.73704,3.62208 3.73704,3.62208 3.47017,-3.62208 3.47018,-3.62208 h 2.78537 2.78538 v 12.64487 12.64487 h -3.01069 -3.01068 v -8.05308 -8.05309 l -3.35797,3.21714 -3.35798,3.21714 -3.26553,-3.26553 -3.26553,-3.26553 v 8.10148 8.10147 z m 37.33249,0 h -7.65574 l -1.89243,-1.89243 -1.89243,-1.89243 v -8.86001 -8.86001 l 1.89243,-1.89243 1.89243,-1.89243 h 7.65574 7.65574 l 1.89243,1.89243 1.89243,1.89243 v 8.86001 8.86001 l -1.89243,1.89243 -1.89243,1.89243 z m 0.29139,-6.24916 4.52571,-0.37434 v -6.02137 -6.02137 h -4.8171 -4.81709 l -0.38132,4.64267 -0.38131,4.64267 0.6727,1.75304 0.67271,1.75304 z m 38.78035,6.24916 h -8.36276 v -12.64487 -12.64487 h 8.36276 8.36277 l 3.3789,2.94036 3.37891,2.94037 -1.86556,3.38207 -1.86557,3.38207 1.86557,3.37306 1.86556,3.37306 -3.37891,2.94938 -3.3789,2.94937 z m 2.17464,-5.04546 4.51602,-0.37377 v -1.80641 -1.80641 l -4.51602,-0.37376 -4.51603,-0.37377 v 2.55394 2.55394 z m 0,-10.83847 4.51602,-0.37376 v -1.80641 -1.80641 l -4.51602,-0.37377 -4.51603,-0.37376 v 2.55394 2.55394 z m 26.79509,15.88393 h -9.63419 v -12.64487 -12.64487 h 9.63419 9.63419 v 3.01068 3.01068 h -6.62351 -6.6235 v 1.80642 1.80641 h 6.6235 6.62351 v 3.01068 3.01068 h -6.62351 -6.6235 v 1.80642 1.80641 h 6.6235 6.62351 v 3.01068 3.01068 z m 17.46197,0 h -3.01069 v -12.64487 -12.64487 h 4.5599 4.55991 l 3.79772,7.52671 3.79772,7.52671 0.0723,-7.52671 0.0723,-7.52671 h 3.01068 3.01069 v 12.64487 12.64487 h -4.5599 -4.55991 l -3.79772,-7.52671 -3.79772,-7.52671 -0.0723,7.52671 -0.0723,7.52671 z m 31.82723,0 h -8.34389 v -12.64487 -12.64487 h 8.34389 8.3439 l 1.89243,1.89243 1.89243,1.89243 v 8.86001 8.86001 l -1.89243,1.89243 -1.89243,1.89243 z m 1.59137,-6.24613 3.91389,-0.37737 v -6.02137 -6.02137 l -3.91389,-0.37737 -3.91389,-0.37737 v 6.77611 6.77611 z m 22.8812,5.99783 -8.73099,0.35382 v -3.06344 -3.06344 h 6.02137 6.02137 v -1.74043 -1.74043 l -5.7203,-0.36705 -5.7203,-0.36705 v -7.22564 -7.22565 l 8.73098,-0.35382 8.73099,-0.35383 v 3.06344 3.06344 h -6.02137 -6.02137 v 1.74043 1.74043 l 5.7203,0.36705 5.7203,0.36705 v 7.22565 7.22564 z M 238.91221,240.02013 h -1.77865 l -1.75261,-2.70961 -1.75262,-2.70962 -0.86567,-3.51665 -0.86568,-3.51665 4.39694,4.86688 4.39694,4.86688 v 1.35939 1.35938 z"
           style="fill:#ffffff;fill-opacity:1;stroke-width:1.2042737" />
      </g>
    </g>
  </g>
</svg>
